<?xml version="1.0" encoding="UTF-8" standalone="no"?>
<!DOCTYPE svg PUBLIC "-//W3C//DTD SVG 1.1//EN" "http://www.w3.org/Graphics/SVG/1.1/DTD/svg11.dtd">
<svg version="1.1" xmlns="http://www.w3.org/2000/svg" xmlns:xlink="http://www.w3.org/1999/xlink" preserveAspectRatio="xMidYMid meet" viewBox="0 0 480 480" width="48" height="48"><defs><path d="M450 30L450 105L270 285L270 420L210 450L210 285L30 105L30 30L450 30Z" id="cL2ejLWK6"></path><path d="M257 285L225 285" id="b6vCXVhm5"></path><path d="M202.5 60L221.25 60L221.25 225L202.5 225L202.5 60Z" id="a20eAGow9Z"></path><path d="M258.75 60L277.5 60L277.5 225L258.75 225L258.75 60Z" id="f3lw2HqJGE"></path><path d="M165 170L315 170L315 188.33L165 188.33L165 170Z" id="hWkG99rGQ"></path><path d="M165 96.67L315 96.67L315 115L165 115L165 96.67Z" id="h3dT8D2qYM"></path></defs><g><g><g><use xlink:href="#cL2ejLWK6" opacity="1" fill="#209958" fill-opacity="1"></use><g><use xlink:href="#cL2ejLWK6" opacity="1" fill-opacity="0" stroke="#1e6840" stroke-width="2" stroke-opacity="1"></use></g></g><g><g><use xlink:href="#b6vCXVhm5" opacity="1" fill-opacity="0" stroke="#134d2e" stroke-width="2" stroke-opacity="1"></use></g></g><g><use xlink:href="#a20eAGow9Z" opacity="1" fill="#05351e" fill-opacity="1"></use></g><g><use xlink:href="#f3lw2HqJGE" opacity="1" fill="#05351e" fill-opacity="1"></use></g><g><use xlink:href="#hWkG99rGQ" opacity="1" fill="#05351e" fill-opacity="1"></use></g><g><use xlink:href="#h3dT8D2qYM" opacity="1" fill="#05351e" fill-opacity="1"></use></g></g></g></svg>